<?xml version="1.0" encoding="utf-8"?>
<!-- Generator: Adobe Illustrator 27.5.0, SVG Export Plug-In . SVG Version: 6.00 Build 0)  -->
<svg version="1.1" id="Layer_1" xmlns="http://www.w3.org/2000/svg" xmlns:xlink="http://www.w3.org/1999/xlink" x="0px" y="0px"
	 viewBox="0 0 146.46 235.46" style="enable-background:new 0 0 146.46 235.46;" xml:space="preserve">
<style type="text/css">
	.st0{fill:#955DAC;}
	.st1{fill:#0098D6;}
	.st2{fill:#00BA72;}
	.st3{fill:#FDC302;}
	.st4{fill:#FF8126;}
	.st5{fill:#FF5546;}
</style>
<g>
	<path class="st0" d="M138.82,132.26L138.82,132.26c-4.16,0-7.53,3.37-7.53,7.53v88.45c0,4.16,3.37,7.53,7.53,7.53h0
		c4.16,0,7.53-3.37,7.53-7.53v-88.45C146.35,135.63,142.98,132.26,138.82,132.26z"/>
	<circle class="st0" cx="138.82" cy="117.2" r="7.53"/>
	<circle class="st0" cx="138.82" cy="94.62" r="7.53"/>
	<path class="st1" d="M112.56,85.84L112.56,85.84c-4.16,0-7.53,3.37-7.53,7.53v134.87c0,4.16,3.37,7.53,7.53,7.53h0
		c4.16,0,7.53-3.37,7.53-7.53V93.37C120.08,89.21,116.71,85.84,112.56,85.84z"/>
	<path class="st2" d="M86.29,45.06L86.29,45.06c-4.16,0-7.53,3.37-7.53,7.53v175.64c0,4.16,3.37,7.53,7.53,7.53h0
		c4.16,0,7.53-3.37,7.53-7.53V52.59C93.82,48.43,90.45,45.06,86.29,45.06z"/>
	<path class="st3" d="M60.03,63.88L60.03,63.88c-4.16,0-7.53,3.37-7.53,7.53v156.82c0,4.16,3.37,7.53,7.53,7.53h0
		c4.16,0,7.53-3.37,7.53-7.53V71.41C67.56,67.25,64.19,63.88,60.03,63.88z"/>
	<path class="st4" d="M33.77,76.43L33.77,76.43c-4.16,0-7.53,3.37-7.53,7.53v144.28c0,4.16,3.37,7.53,7.53,7.53h0
		c4.16,0,7.53-3.37,7.53-7.53V83.96C41.3,79.8,37.93,76.43,33.77,76.43z"/>
	<path class="st5" d="M7.51,146.06L7.51,146.06c-4.16,0-7.53,3.37-7.53,7.53l0,74.65c0,4.16,3.37,7.53,7.53,7.53h0
		c4.16,0,7.53-3.37,7.53-7.53v-74.65C15.03,149.43,11.66,146.06,7.51,146.06z"/>
	<circle class="st1" cx="112.56" cy="70.16" r="7.53"/>
	<circle class="st1" cx="112.56" cy="47.57" r="7.53"/>
	<circle class="st2" cx="86.29" cy="30.01" r="7.53"/>
	<circle class="st2" cx="86.29" cy="7.43" r="7.53"/>
	<circle class="st3" cx="60.03" cy="47.57" r="7.53"/>
	<circle class="st3" cx="60.03" cy="24.99" r="7.53"/>
	<circle class="st4" cx="33.77" cy="61.37" r="7.53"/>
	<circle class="st4" cx="33.77" cy="38.79" r="7.53"/>
	<circle class="st5" cx="7.51" cy="131" r="7.53"/>
	<circle class="st5" cx="7.51" cy="108.42" r="7.53"/>
</g>
</svg>
